<svg width="179" height="179" viewBox="0 0 179 179" fill="none" xmlns="http://www.w3.org/2000/svg">
    <path d="M19.7002 157.167C20.4128 160.564 21.6925 163.477 23.5618 165.789C28.6017 172.021 44.2976 172.949 56.2673 171.135L56.3075 171.123C50.0274 168.347 44.1455 164.842 38.7667 160.709C38.7428 160.691 38.7115 160.683 38.6814 160.687C30.4157 161.687 23.8563 160.521 19.7002 157.167Z" fill="black"/>
    <path d="M162.504 18.4622C162.799 18.7222 163.101 18.9773 163.368 19.2611C168.597 24.8054 168.925 35.4641 164.48 48.906C164.47 48.9385 164.473 48.9748 164.49 49.0042C167.774 54.5137 170.461 60.4193 172.452 66.6376L172.694 66.6448C179.98 48.8424 180.278 31.0658 173.522 23.9009C170.867 21.0859 167.127 19.2719 162.504 18.4622Z" fill="black"/>
    <path d="M8.11536 165.676C10.7434 168.464 13.8901 170.638 17.4979 172.198C17.2307 171.912 16.9361 171.653 16.6888 171.347C8.81781 161.613 8.19219 146.885 13.6784 129.871C20.8115 107.749 38.2826 81.7593 63.6495 57.8354C68.808 52.9704 74.0943 48.3885 79.4444 44.1188C79.5106 44.0659 79.5039 43.9645 79.4337 43.917C75.7652 41.434 72.0964 39.1178 68.4466 36.9932C68.3998 36.966 68.3418 36.9706 68.2999 37.005C63.7031 40.7764 59.1127 44.8043 54.5599 49.098C33.3476 69.1024 16.675 91.5427 7.52622 112.365C7.43731 112.567 7.33782 112.772 7.25042 112.973C-2.65931 135.86 -2.352 154.577 8.11536 165.676Z" fill="black"/>
    <path d="M127.603 15.4C128.348 15.1119 129.096 14.8111 129.835 14.5409C139.755 10.9188 148.761 9.11644 156.562 9.11557C165.583 9.11557 172.976 11.5503 178.36 16.3377C177.131 13.8561 175.57 11.5848 173.657 9.55667C167.556 3.08773 158.81 0 148.298 0C137.449 0 124.716 3.29835 111.077 9.55732C103.262 13.1435 95.1501 17.7044 86.9209 23.1791C86.8447 23.2298 86.8415 23.3425 86.919 23.3912C90.5657 25.6798 94.2419 28.1536 97.9322 30.8045C107.97 24.3362 117.986 19.1216 127.603 15.4Z" fill="black"/>
    <path d="M138.893 163.738C138.866 163.735 138.836 163.741 138.813 163.757C132.92 167.743 126.499 171.004 119.686 173.438C124.232 174.997 128.605 176.177 132.779 176.975C132.79 176.977 132.801 176.978 132.812 176.978C143.417 176.879 151.952 172.01 155.043 168.733C157.238 166.406 158.696 163.336 159.427 159.656C155.174 163.65 147.998 164.98 138.893 163.738Z" fill="black"/>
    <path d="M15.8786 21.6594C11.255 22.4688 7.51519 24.2836 4.85901 27.0991C-0.0708318 32.3266 -0.723965 47.1752 2.49248 62.0335L2.4931 62.0348C3.54229 66.8791 5.0023 71.7229 6.86083 76.2363C7.06685 75.1847 7.30178 74.1441 7.54532 73.1066C9.12441 66.3933 11.4905 59.9891 14.5453 53.9885C14.5599 53.9598 14.5615 53.9255 14.5507 53.8952C9.50413 39.7302 9.52087 28.2873 15.0434 22.4306C15.3017 22.157 15.5938 21.911 15.8786 21.6594Z" fill="black"/>
    <path d="M172.379 119.114C171.984 118.129 171.595 117.145 171.161 116.144C167.711 108.174 163.144 99.963 157.641 91.7355C154.911 87.6544 151.95 83.5696 148.776 79.5087C141.495 70.189 133.107 60.9966 123.851 52.2673C117.772 46.5331 111.624 41.2613 105.485 36.4643C103.51 34.9219 101.537 33.4323 99.5658 31.9895C99.0215 31.591 98.4766 31.195 97.933 30.8044C94.1876 28.1138 90.4564 25.6059 86.756 23.2885C79.0844 18.4848 71.547 14.4977 64.2919 11.3723C51.8031 5.99413 40.1525 3.16943 30.1132 3.16943C19.6029 3.17066 10.8533 6.25796 4.75435 12.7271C2.88967 14.7044 1.3903 16.951 0.173828 19.3919C5.54524 14.697 12.8883 12.3145 21.8194 12.3139C29.6231 12.3139 38.6248 14.1164 48.5466 17.7388C48.7576 17.8163 48.9722 17.906 49.1838 17.9841C57.803 21.1852 66.766 25.6212 75.793 31.0929C79.5119 33.3475 83.2394 35.7749 86.9595 38.3708C87.4515 38.714 87.9429 39.0627 88.4349 39.4114C90.4509 40.8431 92.4644 42.3092 94.4699 43.8338C101.345 49.0595 108.143 54.8183 114.733 61.0335C124.788 70.5156 133.62 80.3298 141.081 90.091C144.169 94.1316 147.02 98.1623 149.624 102.157C157.02 113.498 162.412 124.541 165.569 134.673C170.83 151.552 169.871 165.893 161.472 174.798C161.321 174.959 161.135 175.118 160.974 175.278C164.554 173.735 167.694 171.607 170.296 168.847C180.305 158.233 181 140.643 172.379 119.114Z" fill="black"/>
    <path d="M6.86085 76.2361C6.85071 76.2877 6.84294 76.34 6.83301 76.3915L6.90854 76.3602C6.89171 76.3195 6.87746 76.2768 6.86085 76.2361Z" fill="black"/>
    <path d="M172.557 66.9671C170.55 60.6105 167.817 54.578 164.463 48.9581C157.806 37.8057 148.687 28.3021 137.855 21.1816C136.222 21.6835 134.567 22.2234 132.868 22.844C131.634 23.2944 130.392 23.7721 129.143 24.2764C117.725 28.8865 114.851 43.7864 123.813 52.231L123.852 52.2674C133.107 60.9961 141.495 70.1885 148.776 79.5082C151.95 83.5697 154.912 87.6539 157.641 91.7356C163.145 99.9625 167.711 108.175 171.161 116.143C171.595 117.145 171.985 118.129 172.379 119.114C175.06 110.815 176.524 101.969 176.524 92.7781C176.524 83.7818 175.129 75.1134 172.557 66.9671Z" fill="black"/>
    <path d="M54.5597 49.0977C61.164 42.874 59.4002 31.7488 51.04 28.2191C49.1827 27.435 47.3402 26.7087 45.5155 26.0426C43.5241 25.3156 41.5881 24.6871 39.6908 24.1238C29.1891 31.9675 20.5686 42.1759 14.5681 53.9439C11.5023 59.9574 9.12844 66.3767 7.54543 73.1067C7.30189 74.1442 7.06696 75.1847 6.86094 76.2364C6.87754 76.277 6.8923 76.3194 6.90891 76.36L6.83326 76.3914C5.80498 81.6976 5.24902 87.1717 5.24902 92.778C5.24902 99.5203 6.05344 106.072 7.52636 112.365C16.6751 91.5425 33.3477 69.1024 54.5597 49.0977Z" fill="black"/>
    <path d="M111.078 9.55696C104.6 7.99117 97.8441 7.14062 90.886 7.14062C81.7168 7.14062 72.8934 8.60018 64.6124 11.2684C64.5013 11.3042 64.4897 11.4579 64.5967 11.5043C66.2919 12.2393 68.0024 13.0212 69.7262 13.8494C80.8053 19.1727 93.7399 18.3238 104.662 12.686C106.82 11.5722 108.96 10.5288 111.078 9.55696Z" fill="black"/>
    <path d="M52.4057 84.1715C49.715 87.3036 49.7107 92.078 52.5544 95.0717C61.4467 104.433 74.997 110.033 89.6241 110.033C102.894 110.033 115.348 105.333 124.189 97.4033C127.562 94.3782 127.578 89.1223 124.584 85.7211C119.774 80.2559 114.472 74.7535 108.669 69.2811C107.35 68.0365 106.022 66.8115 104.687 65.6067C94.7368 56.6265 79.5533 56.8095 69.7984 66.0013L69.7129 66.0819C63.3081 72.122 57.5551 78.1775 52.4057 84.1715Z" fill="black"/>
    <path d="M154.508 122.706C153.251 119.875 151.823 116.967 150.222 113.997C146.334 106.791 136.864 104.564 130.275 109.425C119.477 117.394 105.658 121.995 91.0369 122.026C76.4153 121.995 62.5949 117.394 51.797 109.425C45.209 104.564 35.7377 106.791 31.8508 113.997C30.2492 116.967 28.8211 119.875 27.5641 122.706C22.513 134.09 25.3916 147.538 34.5735 155.951C36.4062 157.632 38.3124 159.233 40.2859 160.751C45.6752 164.896 51.5699 168.412 57.8644 171.194C68.013 175.681 79.2059 178.206 90.9665 178.407V178.416C90.9905 178.415 91.0129 178.412 91.0369 178.412C91.0601 178.412 91.0816 178.415 91.1056 178.416V178.407C102.866 178.206 114.059 175.681 124.208 171.194C130.502 168.412 136.397 164.896 141.786 160.751C143.76 159.233 145.666 157.632 147.499 155.951C156.681 147.538 159.56 134.09 154.508 122.706Z" fill="black"/>
</svg>
