<svg class="icon" xmlns="http://www.w3.org/2000/svg">
    <g id="icon-timer" stroke="none" stroke-width="1" fill="currentColor" fill-rule="evenodd">
        <path d="M15 11H17V20H15zM13 2H19V4H13z"/>
        <path d="M28,9,26.58,7.59,24.33,9.84a10.94,10.94,0,1,0,1.18,1.65ZM16,26a9,9,0,1,1,9-9A9,9,0,0,1,16,26Z"/>
    </g>
    <g id="icon-info" stroke="none" stroke-width="1" fill="currentColor" fill-rule="evenodd">
        <path d="M17 22L17 14 13 14 13 16 15 16 15 22 12 22 12 24 20 24 20 22 17 22zM16 8a1.5 1.5 0 101.5 1.5A1.5 1.5 0 0016 8z"/>
        <path d="M16,30A14,14,0,1,1,30,16,14,14,0,0,1,16,30ZM16,4A12,12,0,1,0,28,16,12,12,0,0,0,16,4Z" />
    </g>
    <g id="icon-caret-down" fill="currentColor" xmlns="http://www.w3.org/2000/svg">
        <path d="M24 12L16 22 8 12z"/>
    </g>
    <g id="icon-chevron-sort" fill="currentColor" aria-hidden="true" xmlns="http://www.w3.org/2000/svg">
        <path d="M16 28L9 21 10.41 19.59 16 25.17 21.59 19.59 23 21 16 28zM16 4L23 11 21.59 12.41 16 6.83 10.41 12.41 9 11 16 4z"/>
    </g>
    <g id="icon-video" fill="currentColor" aria-hidden="true" xmlns="http://www.w3.org/2000/svg">
        <path d="M21,26H4a2,2,0,0,1-2-2V8A2,2,0,0,1,4,6H21a2,2,0,0,1,2,2v4.06l5.42-3.87A1,1,0,0,1,30,9V23a1,1,0,0,1-1.58.81L23,19.94V24A2,2,0,0,1,21,26ZM4,8V24H21V18a1,1,0,0,1,1.58-.81L28,21.06V10.94l-5.42,3.87A1,1,0,0,1,21,14V8Z"/>
    </g>
    <g id="icon-notification" fill="currentColor" aria-hidden="true" xmlns="http://www.w3.org/2000/svg">
        <path d="M28.7071,19.293,26,16.5859V13a10.0136,10.0136,0,0,0-9-9.9492V1H15V3.0508A10.0136,10.0136,0,0,0,6,13v3.5859L3.2929,19.293A1,1,0,0,0,3,20v3a1,1,0,0,0,1,1h7v.7768a5.152,5.152,0,0,0,4.5,5.1987A5.0057,5.0057,0,0,0,21,25V24h7a1,1,0,0,0,1-1V20A1,1,0,0,0,28.7071,19.293ZM19,25a3,3,0,0,1-6,0V24h6Zm8-3H5V20.4141L7.707,17.707A1,1,0,0,0,8,17V13a8,8,0,0,1,16,0v4a1,1,0,0,0,.293.707L27,20.4141Z"/>
    </g>
    <g id="icon-setting" fill="currentColor" aria-hidden="true" xmlns="http://www.w3.org/2000/svg">
        <path d="M27,16.76c0-.25,0-.5,0-.76s0-.51,0-.77l1.92-1.68A2,2,0,0,0,29.3,11L26.94,7a2,2,0,0,0-1.73-1,2,2,0,0,0-.64.1l-2.43.82a11.35,11.35,0,0,0-1.31-.75l-.51-2.52a2,2,0,0,0-2-1.61H13.64a2,2,0,0,0-2,1.61l-.51,2.52a11.48,11.48,0,0,0-1.32.75L7.43,6.06A2,2,0,0,0,6.79,6,2,2,0,0,0,5.06,7L2.7,11a2,2,0,0,0,.41,2.51L5,15.24c0,.25,0,.5,0,.76s0,.51,0,.77L3.11,18.45A2,2,0,0,0,2.7,21L5.06,25a2,2,0,0,0,1.73,1,2,2,0,0,0,.64-.1l2.43-.82a11.35,11.35,0,0,0,1.31.75l.51,2.52a2,2,0,0,0,2,1.61h4.72a2,2,0,0,0,2-1.61l.51-2.52a11.48,11.48,0,0,0,1.32-.75l2.42.82a2,2,0,0,0,.64.1,2,2,0,0,0,1.73-1L29.3,21a2,2,0,0,0-.41-2.51ZM25.21,24l-3.43-1.16a8.86,8.86,0,0,1-2.71,1.57L18.36,28H13.64l-.71-3.55a9.36,9.36,0,0,1-2.7-1.57L6.79,24,4.43,20l2.72-2.4a8.9,8.9,0,0,1,0-3.13L4.43,12,6.79,8l3.43,1.16a8.86,8.86,0,0,1,2.71-1.57L13.64,4h4.72l.71,3.55a9.36,9.36,0,0,1,2.7,1.57L25.21,8,27.57,12l-2.72,2.4a8.9,8.9,0,0,1,0,3.13L27.57,20Z"/>
        <path d="M16,22a6,6,0,1,1,6-6A5.94,5.94,0,0,1,16,22Zm0-10a3.91,3.91,0,0,0-4,4,3.91,3.91,0,0,0,4,4,3.91,3.91,0,0,0,4-4A3.91,3.91,0,0,0,16,12Z"/>
    </g>
</svg>
